<svg xmlns="http://www.w3.org/2000/svg" version="1.1" xmlns:xlink="http://www.w3.org/1999/xlink" width="1500" height="1500" viewBox="0 0 1500 1500"><rect width="1500" height="1500" x="0" y="0" id="background" stroke="transparent" fill="#ffffff"></rect><svg xml:space="preserve" width="1000" height="1000" data-version="2" data-id="lg_Fk8uqtiGiVoviXExnL" viewBox="0 0 560 334" x="250" y="250"><rect width="100%" height="100%" fill="transparent"></rect><path d="M16.455 285.383q-4.74 0-6.47-.08l-.75 1.79q-.34.75-.62 1.58-.6 1.6-1.66 1.6-.49 0-.8-.31-.31-.31-.31-.64 0-.57.49-1.27.78-1.09 1.53-2.85-2.23-.21-2.23-1.29 0-1.09 1.27-1.09.78 0 1.81.26l12.92-31.37 17.7 38.28h-13.49l-2.14-4.61Zm-5.64-2.09q2.48.2 4.45.2h7.58l-6.47-13.95Z"></path><rect width="33.7" height="38.56" x="-16.85" y="-19.28" fill="none" rx="0" ry="0" transform="translate(22.98 271.5)"></rect><path d="M44.945 262.353h11.13v8.13q1.79-4.43 3.84-6.51 2.06-2.09 4.13-2.09 1.17 0 1.85.61.69.61.69 1.36 0 .75-.21 1.19-.21.44-.54.75-.7.65-1.32.65-.99 0-1.45-.21-.8-.36-1.43-.36-.62 0-1.57 1-.96.99-1.84 2.75-2.15 4.3-2.15 9.32v11.05h-11.13Z"></path><rect width="21.64" height="28.11" x="-10.82" y="-14.05" fill="none" rx="0" ry="0" transform="translate(56.27 276.44)"></rect><path d="M80.555 290.483q-10.14 0-10.14-9.26l-.03-16.98-2.97.13q-1.4 0-1.4-1.06t1.5-1.06l2.48.1h.39v-4.01l11.1-4.97v8.98h3.47l2.46-.1q1.53 0 1.53 1.08 0 .49-.43.77-.43.27-.97.27l-3.21-.13h-2.85v24.32q3.03-.05 5.05-1.73.96-.72 1.36-1.86.4-1.14.72-1.46.33-.33.77-.33t.75.35q.31.35.31.83t-.26 1.06q-.26.58-.78 1.23-1.16 1.45-2.69 2.3-2.77 1.53-6.16 1.53"></path><rect width="24.43" height="37.11" x="-12.21" y="-18.55" fill="none" rx="0" ry="0" transform="translate(78.73 272.43)"></rect><path d="m110.575 285.323-1.28-1.25q-1.28-1.25-2.79-4.81-1.52-3.56-1.52-7.76 0-4.21 1.44-7.56 1.43-3.35 3.97-5.81 5.44-5.23 13.64-5.23 8.15 0 13.35 5.15 5.28 5.23 5.28 13.56 0 8.31-5.41 13.67-3.39 3.31-8.33 4.58-2.46.62-5.71.62-3.24 0-6.66-1.33-3.42-1.34-5.98-3.83m13.43-30.53q-1.42 0-2.66.21v33.38q1.19.21 2.66.21 6.91 0 11.65-4.61 4.94-4.78 4.94-12.37 0-7.22-4.63-12-4.69-4.82-11.96-4.82"></path><rect width="37.68" height="37.58" x="-18.84" y="-18.79" fill="none" rx="0" ry="0" transform="translate(124.33 272.2)"></rect><path d="m166.705 264.343-2.77-.1h-2.87v25.75h-11.13l.03-25.75h-.41l-2.46.1q-1.53 0-1.53-1.05 0-1.04 1.4-1.04l3.08.1q.54-4.68 4.16-7.17 3.32-2.28 8.67-2.28 5.02 0 6.91 2 .52.54.52 1.03 0 1.14-1.16 1.14-.57 0-1.12-.39l-.93-.65q-1.5-1.11-3.23-1.21-.47-.03-.97-.03-.51 0-.95.05-.44.06-.88.11v7.4h2.25l3.47-.1q1.4 0 1.4 1.04 0 1.05-1.48 1.05"></path><rect width="24.74" height="37.09" x="-12.37" y="-18.55" fill="none" rx="0" ry="0" transform="translate(158.44 271.95)"></rect><path d="M189.925 285.383q-4.74 0-6.47-.08l-.75 1.79q-.34.75-.62 1.58-.6 1.6-1.66 1.6-.49 0-.8-.31-.31-.31-.31-.64 0-.57.49-1.27.77-1.09 1.52-2.85-2.22-.21-2.22-1.29 0-1.09 1.27-1.09.77 0 1.81.26l12.91-31.37 17.7 38.28h-13.48l-2.15-4.61Zm-5.65-2.09q2.49.2 4.46.2h7.58l-6.47-13.95Z"></path><rect width="33.69" height="38.56" x="-16.84" y="-19.28" fill="none" rx="0" ry="0" transform="translate(196.45 271.5)"></rect><path d="M237.565 265.173q-.65-.41-1.4-.41-.75 0-1.55.35-.8.34-1.68.97-1.84 1.32-3.39 3.52v20.39h-11.13v-27.64h11.13v4.42q4.42-4.89 10.01-4.89 9.14 0 9.14 8.85v19.26h-11.13Z"></path><rect width="30.28" height="28.11" x="-15.14" y="-14.05" fill="none" rx="0" ry="0" transform="translate(234.06 276.44)"></rect><path d="M274.465 288.283q-3.31 2.2-7.35 2.2-5.35 0-8.59-2.69-3.36-2.77-3.36-7.69 0-4.35 3.34-7.14 3.41-2.82 8.98-2.82 3.72 0 6.98 1.42v-7.11q-2.35-.68-4.15-.68-1.8 0-3.04.16-1.24.15-2.36.46-2.4.68-3.65 1.82-.72.67-1.32.67-.59 0-.9-.3-.31-.3-.31-.66 0-.36.13-.66.13-.3.49-.61.78-.67 2.59-1.34 3.75-1.43 7.53-1.43 11.49 0 14.67 5.49 1.4 2.43 1.4 6.39v16.23h-11.08Zm0-14.7q-3.26-1.58-6.49-1.58-.52 0-.99.08v16.46q.13.02.29.02h.31q3.54 0 6.88-2.51Z"></path><rect width="30.38" height="28.6" x="-15.19" y="-14.3" fill="none" rx="0" ry="0" transform="translate(270.86 276.68)"></rect><path d="M293.645 253.373h11.13v36.62h-11.13Z"></path><rect width="11.13" height="36.62" x="-5.57" y="-18.31" fill="none" rx="0" ry="0" transform="translate(299.71 272.18)"></rect><path d="M310.855 276.013q0-3.1 1.12-5.65 1.13-2.55 3.1-4.44 4.24-4.04 10.66-4.04 6.55 0 10.66 4.2 3.93 3.96 3.93 10.01 0 6.08-4.03 10.17-4.17 4.22-10.66 4.22-6.34 0-10.51-4.01-4.27-4.14-4.27-10.46m14.05 12.53q.21.02.42.02h.36q5.22 0 8.77-3.23 3.78-3.49 3.78-9.16 0-5.54-3.55-8.98-3.49-3.42-9.03-3.42h-.39q-.18 0-.36.03Z"></path><rect width="29.47" height="28.6" x="-14.73" y="-14.3" fill="none" rx="0" ry="0" transform="translate(326.09 276.68)"></rect><path d="M352.595 281.553q-2.3.7-2.3 1.53 0 .8 1.34 1.11 2.62.62 7.2.74t6.89.7q2.32.58 3.69 1.46 2.49 1.63 2.49 4.32 0 3.37-3.34 5.46-3.7 2.31-10.43 2.31-6.96 0-11.49-2.08-1.63-.8-1.63-1.81 0-.44.32-.7.33-.25.69-.25.44 0 1.01.33 1.32.75 2.44 1.26 1.13.5 3.54.97 2.4.46 4.64.46 2.24 0 3.65-.19 1.41-.19 2.34-.45 1.84-.55 1.84-1.22 0-.62-.36-.91-.37-.28-.95-.5-.58-.22-1.62-.4-2.12-.36-5.77-.54-3.65-.19-5.77-.72-2.12-.53-3.46-1.36-2.62-1.57-2.62-4.27 0-3.88 5.25-6.28-2.4-1.32-3.83-3.48-1.42-2.17-1.42-4.69 0-2.52.95-4.37.94-1.85 2.65-3.2 3.6-2.9 9.29-2.9 2.54 0 5.1.78 3.67-3.55 6.8-3.55 1.32 0 1.96.44.63.44.63 1.12 0 .67-.44.97-.44.3-.83.3-.7 0-1.19-.16-.72-.26-1.47-.26-1.4 0-3.52 1.94 4.22 2.07 5.51 5.95.41 1.3.41 3.17 0 1.88-1.08 3.74-1.09 1.87-2.9 3.21-3.78 2.8-8.88 2.8-2.69.05-5.33-.78m5.44-1.11q4.19-.05 7.22-2.05 3.49-2.27 3.49-6.15 0-3.89-3.44-6.27-3.16-2.17-7.27-2.25Z"></path><rect width="27.38" height="40.07" x="-13.69" y="-20.04" fill="none" rx="0" ry="0" transform="translate(359.13 279.65)"></rect><path d="m406.895 279.253 2.3.1q5.02 0 8.28-3.31 3.31-3.34 3.47-8.64.28-8.18-7.87-11.05-3.05-1.09-7.94-1.09h-2.18v34.73h-13.2v-36.62h9.92q8.02 0 9.67.23 1.66.24 3.46.6t3.88 1.58q2.08 1.21 3.53 2.89 2.93 3.42 2.82 8.03-.15 5.87-3.44 9.78-3.34 3.93-9.21 4.86-1.71.24-2.69.24-2.33 0-2.33-1.27 0-.47.41-.76.42-.3 1.12-.3"></path><rect width="33.31" height="36.62" x="-16.66" y="-18.31" fill="none" rx="0" ry="0" transform="translate(406.91 272.18)"></rect><path d="M450.055 261.883q9.11 0 9.11 8.85v19.26h-11.13v-25.18q-.46-.31-1.23-.31-.76 0-1.59.36-.83.36-1.73 1.01-1.94 1.42-3.44 3.57v20.55h-11.13v-36.62h11.13v13.35q4.42-4.84 10.01-4.84"></path><rect width="30.25" height="36.62" x="-15.13" y="-18.31" fill="none" rx="0" ry="0" transform="translate(444.54 272.18)"></rect><path d="M465.245 276.013q0-3.1 1.13-5.65 1.12-2.55 3.09-4.44 4.24-4.04 10.66-4.04 6.55 0 10.66 4.2 3.94 3.96 3.94 10.01 0 6.08-4.04 10.17-4.17 4.22-10.66 4.22-6.34 0-10.51-4.01-4.27-4.14-4.27-10.46m14.05 12.53q.21.02.42.02h.36q5.23 0 8.77-3.23 3.78-3.49 3.78-9.16 0-5.54-3.54-8.98-3.5-3.42-9.03-3.42h-.39q-.18 0-.37.03Z"></path><rect width="29.48" height="28.6" x="-14.74" y="-14.3" fill="none" rx="0" ry="0" transform="translate(480.49 276.68)"></rect><path d="M511.985 290.483q-10.14 0-10.14-9.26l-.03-16.98-2.98.13q-1.39 0-1.39-1.06t1.5-1.06l2.48.1h.39v-4.01l11.1-4.97v8.98h3.47l2.46-.1q1.52 0 1.52 1.08 0 .49-.42.77-.43.27-.97.27l-3.21-.13h-2.85v24.32q3.03-.05 5.05-1.73.96-.72 1.36-1.86.4-1.14.72-1.46.32-.33.76-.33t.75.35q.32.35.32.83t-.26 1.06q-.26.58-.78 1.23-1.16 1.45-2.69 2.3-2.77 1.53-6.16 1.53"></path><rect width="24.43" height="37.11" x="-12.21" y="-18.55" fill="none" rx="0" ry="0" transform="translate(510.16 272.43)"></rect><path d="M523.885 276.013q0-3.1 1.13-5.65 1.13-2.55 3.09-4.44 4.25-4.04 10.66-4.04 6.55 0 10.67 4.2 3.93 3.96 3.93 10.01 0 6.08-4.04 10.17-4.16 4.22-10.66 4.22-6.34 0-10.51-4.01-4.27-4.14-4.27-10.46m14.06 12.53q.2.02.41.02h.36q5.23 0 8.78-3.23 3.77-3.49 3.77-9.16 0-5.54-3.54-8.98-3.5-3.42-9.03-3.42h-.39q-.18 0-.36.03Z"></path><rect width="29.48" height="28.6" x="-14.74" y="-14.3" fill="none" rx="0" ry="0" transform="translate(539.13 276.68)"></rect><path stroke="#39cccc" stroke-width="3" d="M21.713 322.81h148.16M392 321.86h148.16" vector-effect="non-scaling-stroke"></path><path d="m184.885 326.333 2.24-11.2h1.17l-2.03 10.18h6.27l-.21 1.02Z"></path><rect width="7.65" height="11.2" x="-3.83" y="-5.6" fill="none" rx="0" ry="0" transform="translate(189.21 321.23)"></rect><path d="M197.465 326.413q-1.11 0-1.83-.45-.73-.44-1-1.28-.28-.83-.07-1.96l.96-4.79h1.14l-.96 4.79q-.24 1.24.27 1.96.51.71 1.79.71 1.33 0 2.22-.74.89-.73 1.19-2.21l.9-4.51h1.13l-1.68 8.4h-1.09l.48-2.41.24.4q-.59 1.08-1.56 1.59-.96.5-2.13.5"></path><rect width="8.79" height="8.48" x="-4.39" y="-4.24" fill="none" rx="0" ry="0" transform="translate(199.31 322.67)"></rect><path d="m203.385 326.333 4.53-4.64-.13.56-2.5-4.32h1.2l2.08 3.63-.51-.01 3.49-3.62h1.31l-4.3 4.43.09-.64 2.67 4.61h-1.21l-2.19-3.84h.51l-3.7 3.84Z"></path><rect width="9.47" height="8.4" x="-4.74" y="-4.2" fill="none" rx="0" ry="0" transform="translate(208.62 322.63)"></rect><path d="M221.235 326.413q-1.2 0-2.07-.44-.87-.44-1.34-1.24-.47-.8-.47-1.89 0-1.44.62-2.56.62-1.13 1.74-1.78 1.11-.65 2.53-.65 1.17 0 2.01.43.84.42 1.3 1.25l-.96.56q-.35-.64-.96-.94-.62-.31-1.48-.31-1.06 0-1.89.52-.83.51-1.31 1.4-.47.88-.47 2.04 0 1.23.73 1.92.73.68 2.07.68.82 0 1.51-.31.7-.31 1.15-.9l.81.62q-.54.75-1.48 1.18-.95.42-2.04.42"></path><rect width="8.2" height="8.56" x="-4.1" y="-4.28" fill="none" rx="0" ry="0" transform="translate(221.96 322.63)"></rect><path d="M229.875 326.413q-1.07 0-1.9-.43-.83-.43-1.3-1.23-.46-.8-.46-1.91 0-1.07.35-1.98.35-.91.99-1.59t1.52-1.05q.87-.37 1.89-.37 1.11 0 1.87.39.77.4 1.19 1.14.41.74.41 1.8 0 1.52-.56 2.7-.56 1.19-1.58 1.86-1.02.67-2.42.67m.24-1.01q1.06 0 1.88-.5.83-.5 1.3-1.4.47-.9.47-2.03 0-1.25-.73-1.94-.72-.69-2.04-.69-1.04 0-1.87.52-.83.51-1.3 1.4-.47.88-.47 2.04 0 1.23.72 1.92.73.68 2.04.68m2.77.93.48-2.41.48-1.7.16-1.76.51-2.53h1.14l-1.68 8.4Z"></path><rect width="9.44" height="8.56" x="-4.72" y="-4.28" fill="none" rx="0" ry="0" transform="translate(231.44 322.63)"></rect><path d="M241.815 326.413q-1.09 0-1.86-.39-.78-.39-1.19-1.14-.41-.74-.42-1.8 0-1.55.56-2.72.56-1.18 1.58-1.84 1.03-.67 2.42-.67 1.09 0 1.91.43.82.42 1.3 1.22.47.8.47 1.9 0 1.09-.35 2-.36.92-1 1.59-.65.67-1.52 1.05-.86.37-1.9.37m-5.3 3.03 2.29-11.51h1.09l-.48 2.42-.46 1.68-.18 1.76-1.12 5.65Zm5.28-4.04q1.06 0 1.88-.5.81-.5 1.28-1.4.48-.9.48-2.03 0-1.25-.72-1.94t-2.05-.69q-1.04 0-1.87.52-.82.51-1.29 1.4-.47.88-.47 2.04 0 1.23.72 1.92.72.68 2.04.68"></path><rect width="10.07" height="11.59" x="-5.04" y="-5.79" fill="none" rx="0" ry="0" transform="translate(242.05 324.15)"></rect><path d="M250.665 326.413q-.72 0-1.23-.31-.52-.31-.72-.89-.2-.57-.04-1.37l1.54-7.76h1.14l-1.54 7.71q-.16.78.12 1.21.28.44 1.03.44.35 0 .69-.11.34-.1.61-.33l.27.87q-.4.3-.9.42-.49.12-.97.12m-2.5-7.53.18-.95h5.2l-.19.95Z"></path><rect width="5.38" height="10.33" x="-2.69" y="-5.17" fill="none" rx="0" ry="0" transform="translate(251.35 321.75)"></rect><path d="M258.025 326.413q-1.11 0-1.83-.45-.73-.44-1-1.28-.28-.83-.07-1.96l.96-4.79h1.14l-.96 4.79q-.24 1.24.27 1.96.51.71 1.79.71 1.33 0 2.22-.74.89-.73 1.19-2.21l.9-4.51h1.13l-1.68 8.4h-1.09l.48-2.41.24.4q-.59 1.08-1.56 1.59-.96.5-2.13.5"></path><rect width="8.79" height="8.48" x="-4.39" y="-4.24" fill="none" rx="0" ry="0" transform="translate(259.87 322.67)"></rect><path d="M267.705 326.413q-1.03 0-1.94-.29-.91-.28-1.41-.73l.55-.9q.48.43 1.26.68.79.25 1.65.25 1.2 0 1.85-.4.65-.4.65-1.1 0-.48-.35-.73-.34-.25-.89-.39-.54-.13-1.15-.26-.61-.13-1.15-.33-.54-.2-.89-.61-.34-.42-.34-1.12 0-.8.45-1.4.46-.59 1.28-.91.81-.32 1.92-.32.8 0 1.58.21t1.26.58l-.48.91q-.49-.39-1.15-.55-.65-.17-1.31-.17-1.17 0-1.8.42-.63.43-.63 1.11 0 .48.34.74.35.26.89.4t1.16.26q.62.12 1.15.33.54.21.88.6.35.39.35 1.1 0 .83-.47 1.41-.46.59-1.3.9-.84.31-1.96.31"></path><rect width="7.68" height="8.56" x="-3.84" y="-4.28" fill="none" rx="0" ry="0" transform="translate(268.7 322.63)"></rect><path d="m277.255 326.333 1.66-8.4h1.14l-1.66 8.4Zm2.7-10.25q-.33 0-.55-.23-.21-.22-.21-.53 0-.35.24-.6.25-.26.64-.26.35 0 .56.21.22.21.22.53 0 .38-.25.63t-.65.25"></path><rect width="3.6" height="11.87" x="-1.8" y="-5.93" fill="none" rx="0" ry="0" transform="translate(279.56 320.9)"></rect><path d="M287.335 317.853q1.14 0 1.86.44.73.44 1.01 1.27.28.84.04 1.99l-.96 4.78h-1.13l.96-4.8q.25-1.25-.27-1.95t-1.83-.7q-1.34 0-2.23.73-.89.74-1.19 2.21l-.9 4.51h-1.14l1.67-8.4h1.09l-.48 2.42-.24-.42q.6-1.09 1.57-1.58.97-.5 2.17-.5"></path><rect width="8.87" height="8.48" x="-4.43" y="-4.24" fill="none" rx="0" ry="0" transform="translate(286.49 322.6)"></rect><path d="M300.155 326.413q-1.08 0-1.91-.43-.83-.43-1.29-1.23-.47-.8-.47-1.91 0-1.07.35-1.98.36-.91 1-1.59t1.51-1.05q.87-.37 1.89-.37 1.11 0 1.88.39.76.4 1.18 1.14.42.74.42 1.8 0 1.52-.56 2.7-.56 1.19-1.59 1.86-1.02.67-2.41.67m.24-1.01q1.05 0 1.88-.5.82-.5 1.29-1.4.47-.9.47-2.03 0-1.25-.72-1.94-.73-.69-2.04-.69-1.04 0-1.88.52-.83.51-1.3 1.4-.47.88-.47 2.04 0 1.23.73 1.92.72.68 2.04.68m2.76.93.48-2.41.48-1.7.16-1.76.52-2.53h1.13l-1.68 8.4Z"></path><rect width="9.44" height="8.56" x="-4.72" y="-4.28" fill="none" rx="0" ry="0" transform="translate(301.7 322.63)"></rect><path d="M311.255 326.413q-1.2 0-2.09-.44-.89-.44-1.36-1.24-.47-.8-.47-1.9 0-1.44.61-2.56t1.66-1.77q1.06-.65 2.39-.65 1.12 0 1.93.43.82.42 1.27 1.22.46.8.46 1.92 0 .26-.03.52t-.08.5h-7.38l.15-.84h6.7l-.46.32q.16-1.01-.15-1.7-.3-.69-.93-1.05-.64-.36-1.52-.36-1.02 0-1.82.51-.8.5-1.25 1.39-.45.89-.45 2.07 0 1.26.73 1.94.73.68 2.19.68.84 0 1.56-.28.72-.28 1.19-.77l.51.81q-.59.6-1.48.92-.89.33-1.88.33"></path><rect width="8.32" height="8.56" x="-4.16" y="-4.28" fill="none" rx="0" ry="0" transform="translate(312 322.63)"></rect><path d="M319.755 326.413q-.72 0-1.24-.31-.51-.31-.71-.89-.2-.57-.04-1.37l1.54-7.76h1.13l-1.53 7.71q-.16.78.12 1.21.28.44 1.03.44.35 0 .69-.11.33-.1.61-.33l.27.87q-.4.3-.9.42-.49.12-.97.12m-2.5-7.53.18-.95h5.2l-.2.95Z"></path><rect width="5.38" height="10.33" x="-2.69" y="-5.17" fill="none" rx="0" ry="0" transform="translate(320.44 321.75)"></rect><path d="M327.125 326.413q-1.2 0-2.09-.44-.88-.44-1.36-1.24-.47-.8-.47-1.9 0-1.44.61-2.56t1.66-1.77q1.06-.65 2.39-.65 1.12 0 1.93.43.82.42 1.28 1.22.45.8.45 1.92 0 .26-.03.52t-.08.5h-7.38l.15-.84h6.7l-.46.32q.16-1.01-.15-1.7-.3-.69-.93-1.05-.63-.36-1.51-.36-1.03 0-1.83.51-.8.5-1.25 1.39-.44.89-.44 2.07 0 1.26.72 1.94.73.68 2.19.68.85 0 1.57-.28.72-.28 1.18-.77l.51.81q-.59.6-1.48.92-.89.33-1.88.33"></path><rect width="8.32" height="8.56" x="-4.16" y="-4.28" fill="none" rx="0" ry="0" transform="translate(327.87 322.63)"></rect><path d="m332.955 326.333 1.66-8.4h1.09l-.48 2.48-.13-.43q.56-1.1 1.48-1.62.92-.51 2.3-.51l-.21 1.11q-.08 0-.15-.01-.08-.01-.17-.01-1.35 0-2.22.78-.87.77-1.19 2.34l-.85 4.27Z"></path><rect width="5.92" height="8.48" x="-2.96" y="-4.24" fill="none" rx="0" ry="0" transform="translate(336.42 322.6)"></rect><path d="M345.015 317.853q1.14 0 1.86.44.73.44 1.01 1.27.28.84.04 1.99l-.96 4.78h-1.13l.96-4.8q.25-1.25-.27-1.95t-1.83-.7q-1.34 0-2.23.73-.89.74-1.19 2.21l-.9 4.51h-1.14l1.67-8.4h1.09l-.48 2.42-.24-.42q.6-1.09 1.57-1.58.97-.5 2.17-.5"></path><rect width="8.87" height="8.48" x="-4.43" y="-4.24" fill="none" rx="0" ry="0" transform="translate(344.17 322.6)"></rect><path d="M353.575 326.413q-1.1 0-1.83-.45-.73-.44-1-1.28-.27-.83-.07-1.96l.96-4.79h1.14l-.96 4.79q-.24 1.24.27 1.96.51.71 1.79.71 1.33 0 2.22-.74.89-.73 1.19-2.21l.9-4.51h1.13l-1.68 8.4h-1.08l.48-2.41.24.4q-.6 1.08-1.56 1.59-.97.5-2.14.5"></path><rect width="8.78" height="8.48" x="-4.39" y="-4.24" fill="none" rx="0" ry="0" transform="translate(355.42 322.67)"></rect><path d="M372.775 317.853q1.14 0 1.85.44.71.44.98 1.27.27.84.03 1.99l-.96 4.78h-1.13l.96-4.8q.25-1.25-.23-1.95-.49-.7-1.77-.7-1.27 0-2.12.7-.86.7-1.15 2.11l-.92 4.64h-1.14l.96-4.8q.26-1.25-.24-1.95t-1.76-.7q-1.3 0-2.14.73-.85.74-1.16 2.21l-.89 4.51h-1.14l1.67-8.4h1.08l-.48 2.42-.24-.42q.61-1.09 1.54-1.58.93-.5 2.1-.5.88 0 1.51.3.63.29.99.86.36.57.39 1.35l-.59-.12q.62-1.2 1.66-1.8 1.03-.59 2.34-.59"></path><rect width="15.01" height="8.48" x="-7.5" y="-4.24" fill="none" rx="0" ry="0" transform="translate(368.8 322.6)"></rect><circle r="50" fill="#fff" stroke="#39cccc" stroke-width="8" paint-order="stroke" transform="translate(280.48 109.7)scale(1.9655)"></circle><path d="M330.239 85.846H312.44a1.985 1.985 0 0 0-1.979 1.98v10.91c0 1.095.884 1.979 1.98 1.979h17.797a1.976 1.976 0 0 0 1.979-1.98v-10.91a1.985 1.985 0 0 0-1.98-1.979m-1.98 10.91H314.42v-6.952h13.84zm-47.31 40.226h.014c11.123 0 20.159-9.037 20.159-20.159s-9.037-20.172-20.16-20.172-20.171 9.05-20.171 20.172c0 11.109 9.037 20.146 20.159 20.16m-12.005-19.525c.08-.41.119-.634.119-.634s.066.212.184.622c.08.396.33.962.568 1.662.316.686.712 1.478 1.28 2.296.54.83 1.306 1.634 2.19 2.374a11.614 11.614 0 0 0 3.126 1.846 10.614 10.614 0 0 0 7.718-.026c1.239-.515 2.414-1.254 3.378-2.23a10.238 10.238 0 0 0 2.242-3.377 12.3 12.3 0 0 0 .554-1.847l.053-.21.028-.317.066-.62c.038-.21.013-.633.038-.938 0-2.665-1.08-5.144-2.558-6.913-.752-.884-1.557-1.649-2.375-2.19a14.362 14.362 0 0 0-2.295-1.28c-.686-.25-1.267-.488-1.676-.567-.409-.119-.62-.185-.62-.185s.224-.04.633-.118c.41-.093 1.03-.159 1.862-.159.803.053 1.834.119 2.94.475 1.122.317 2.362.897 3.563 1.768a12.687 12.687 0 0 1 3.324 3.549 13.237 13.237 0 0 1 1.86 5.25c.028.515.134.924.106 1.544v.632l-.013.317-.04.41c-.105 1.147-.29 2.123-.646 3.126-.66 1.993-1.82 3.853-3.311 5.382-1.53 1.491-3.378 2.654-5.383 3.313-1.951.686-4.156.845-5.963.593-4.077-.487-7.138-2.758-8.866-5.172a11.37 11.37 0 0 1-1.768-3.575c-.356-1.122-.422-2.138-.475-2.941.012-.818.065-1.438.157-1.86M253.6 86.507c-2.639 0-4.803 2.15-4.803 4.789s2.164 4.789 4.803 4.789 4.789-2.15 4.789-4.789-2.15-4.79-4.79-4.79m0 6.94a2.162 2.162 0 0 1-2.164-2.151c0-1.187.976-2.15 2.164-2.15a2.15 2.15 0 0 1 0 4.3"></path><path d="M337.521 81.519a1.976 1.976 0 0 0-1.979-1.979h-1.979v-4.895a1.976 1.976 0 0 0-1.979-1.979H315.53a1.976 1.976 0 0 0-1.98 1.98v4.894h-11.385l-3.51-11.557a1.967 1.967 0 0 0-1.9-1.412H270.66a1.99 1.99 0 0 0-1.9 1.412l-3.496 11.557h-6.504v-6.926a1.993 1.993 0 0 0-1.979-1.98H233.39a1.985 1.985 0 0 0-1.98 1.98v6.926h-7.334a1.976 1.976 0 0 0-1.98 1.979v67.997c0 1.082.885 1.979 1.98 1.979h111.48a1.985 1.985 0 0 0 1.98-1.98v-45.199zm-20.014-4.895h12.098v2.916h-12.098zm-45.383-6.095h23.166l2.731 9.011h-5.053v-6.544a1.327 1.327 0 0 0-1.319-1.319h-15.871c-.726 0-1.32.594-1.32 1.32v6.543h-5.065zm18.206 3.787v5.224h-13.233v-5.224zm-37.218.277h1.69v4.947h-1.69zm-4.195 0h1.557v4.947h-1.557zm-5.633 0h2.994v4.947h-2.994zm-4.5 0h1.861v4.947h-1.86zm-3.416 0h.778v4.947h-.778zm-9.314 31.716h29.42a27.59 27.59 0 0 0-2.098 10.514c0 11.783 7.454 21.836 17.89 25.766h-45.212zm31.28 10.514c0-3.93.99-7.823 2.863-11.253a23.61 23.61 0 0 1 41.373-.264 23.55 23.55 0 0 1 3.008 11.516c0 13.022-10.594 23.604-23.615 23.604s-23.629-10.581-23.629-23.603m76.243 30.714H226.054v-2.309h107.523zm0-4.948H290.66c10.422-3.931 17.876-13.984 17.876-25.766 0-3.613-.725-7.19-2.097-10.514h27.138zm-29.17-40.238c-5-8.1-13.866-13.1-23.444-13.1a27.581 27.581 0 0 0-23.47 13.1h-31.44V83.498h107.51l.014 18.853z"></path></svg></svg>